# xmcd CD database file
#
# Track frame offsets:
#	150
#	27237
#	37405
#
# Disc length: 859 seconds
#
# Revision: 0
# Processed by: cddbd v1.5.1PL0 Copyright (c) Steve Scherf et al.
# Submitted via: CDex 1.50
#
DISCID=23035903
DTITLE=Motorworks - Speeder
DYEAR=2004
DGENRE=Rock
TTITLE0=Speeder
TTITLE1=Heat Wave
TTITLE2=SPEEDER-English Ver.-
EXTD=YEAR: 2004
EXTT0=
EXTT1=
EXTT2=
PLAYORDER=
